<svg xmlns="http://www.w3.org/2000/svg" viewBox="0 0 48 48"><path d="M39,10V34a2,2,0,0,1-2,2H30v2a2,2,0,0,1-2,2H20a2,2,0,0,1-2-2V36H11a2,2,0,0,1-2-2V17a1,1,0,0,1,2,0V34h7a2,2,0,0,1,2,2v2h8V36a2,2,0,0,1,2-2h7V10H11v3a1,1,0,0,1-2,0V10a2,2,0,0,1,2-2H37A2,2,0,0,1,39,10Zm4-3V41a3,3,0,0,1-3,3H8a3,3,0,0,1-3-3V7A3,3,0,0,1,8,4H40A3,3,0,0,1,43,7ZM41,7a1,1,0,0,0-1-1H8A1,1,0,0,0,7,7V41a1,1,0,0,0,1,1H40a1,1,0,0,0,1-1ZM24,14a1,1,0,0,0-1,1v6H17a1,1,0,0,0,0,2h6v6a1,1,0,0,0,2,0V23h6a1,1,0,0,0,0-2H25V15A1,1,0,0,0,24,14Z" data-name="22 Create Message"/></svg>